HIERARCHY
ROOT Hips
{
  OFFSET 196.326 95.9168 97.7182
  CHANNELS 6 Xposition Yposition Zposition Zrotation Xrotation Yrotation
  JOINT LeftUpLeg
  {
    OFFSET 8.64259 1.95398 -2.38835
    CHANNELS 3 Zrotation Xrotation Yrotation
    JOINT LeftLeg
    {
      OFFSET 43.7702 0 0
      CHANNELS 3 Zrotation Xrotation Yrotation
      JOINT LeftFoot
      {
        OFFSET 40.6238 0 0
        CHANNELS 3 Zrotation Xrotation Yrotation
        JOINT LeftToeBase
        {
          OFFSET 12.7242 0 0
          CHANNELS 3 Zrotation Xrotation Yrotation
          End Site
          {
            OFFSET 0 0 0
          }
        }
      }
    }
  }
  JOINT RightUpLeg
  {
    OFFSET -8.2249 1.95398 -2.59336
    CHANNELS 3 Zrotation Xrotation Yrotation
    JOINT RightLeg
    {
      OFFSET 43.5653 0 0
      CHANNELS 3 Zrotation Xrotation Yrotation
      JOINT RightFoot
      {
        OFFSET 40.6238 0 0
        CHANNELS 3 Zrotation Xrotation Yrotation
        JOINT RightToeBase
        {
          OFFSET 12.7242 0 0
          CHANNELS 3 Zrotation Xrotation Yrotation
          End Site
          {
            OFFSET 0 0 0
          }
        }
      }
    }
  }
  JOINT Spine
  {
    OFFSET 0.165834 0.87714 6.61349
    CHANNELS 3 Zrotation Xrotation Yrotation
    JOINT Spine1
    {
      OFFSET 7.38963 1.71661e-005 0
      CHANNELS 3 Zrotation Xrotation Yrotation
      JOINT Spine2
      {
        OFFSET 11.9445 1.14441e-005 0
        CHANNELS 3 Zrotation Xrotation Yrotation
        JOINT Spine3
        {
          OFFSET 14.7254 4.19617e-005 0
          CHANNELS 3 Zrotation Xrotation Yrotation
          JOINT Spine4
          {
            OFFSET 10.9679 0 0
            CHANNELS 3 Zrotation Xrotation Yrotation
            JOINT RightShoulder
            {
              OFFSET 2.46616 -1.6653 3.69651
              CHANNELS 3 Zrotation Xrotation Yrotation
              JOINT RightArm
              {
                OFFSET 13.0012 0 0
                CHANNELS 3 Zrotation Xrotation Yrotation
                JOINT RightForeArm
                {
                  OFFSET 28.7848 1.52588e-005 0
                  CHANNELS 3 Zrotation Xrotation Yrotation
                  JOINT RightHand
                  {
                    OFFSET 26.5688 1.52588e-005 0
                    CHANNELS 3 Zrotation Xrotation Yrotation
                    End Site
                    {
                      OFFSET 0 0 0
                    }
                  }
                }
              }
            }
            JOINT LeftShoulder
            {
              OFFSET 2.38034 -1.29275 -3.75231
              CHANNELS 3 Zrotation Xrotation Yrotation
              JOINT LeftArm
              {
                OFFSET 16.3182 6.10351e-005 0
                CHANNELS 3 Zrotation Xrotation Yrotation
                JOINT LeftForeArm
                {
                  OFFSET 27.0901 0 0
                  CHANNELS 3 Zrotation Xrotation Yrotation
                  JOINT LeftHand
                  {
                    OFFSET 24.5451 1.52588e-005 0
                    CHANNELS 3 Zrotation Xrotation Yrotation
                    End Site
                    {
                      OFFSET 0 0 0
                    }
                  }
                }
              }
            }
            JOINT Neck
            {
              OFFSET 5.0226 -0.0266342 0
              CHANNELS 3 Zrotation Xrotation Yrotation
              JOINT Head
              {
                OFFSET 6.69363 2.86102e-005 0
                CHANNELS 3 Zrotation Xrotation Yrotation
                End Site
                {
                  OFFSET 0 0 0
                }
              }
            }
          }
        }
      }
    }
  }
}
MOTION
Frames:	7
Frame Time:	0.0416667
37.3971 97.0759 -247.769 -52.7703 -82.9197 -52.0329 -173.697 8.9006 88.0471 -12.5164 13.0266 -0.709277 62.1378 12.3724 21.375 35.8809 7.36949 -26.1452 178.373 10.9269 91.6132 -18.3255 5.56483 0.469598 68.3088 -2.86416 -1.59597 32.1956 -0.364795 17.2971 0.0499722 6.73815 -89.8893 13.3974 0.152729 0.202153 1.72649 0.161466 0.195231 -20.8086 0.0849084 0.238711 -0.795927 0.0848995 0.238699 79.8931 -52.2153 -115.181 26.8078 -10.199 5.95699 -12.3603 -19.7598 -40.2609 -4.94416 -0.548667 5.33058 -102.438 -42.5002 57.2627 -30.0262 7.20554 4.20442 4.77497 9.42154 -30.5394 10.1927 0.710151 2.89316 16.2001 2.70077 -2.24045 -6.23783 3.26419 4.28789 
37.8064 96.8751 -247.38 -51.4436 -83.7727 -50.5932 -174.167 8.87429 87.5722 -13.8848 12.9116 -0.304203 62.7661 14.4027 22.1193 35.1597 6.87704 -24.7794 178.717 9.06526 91.8046 -16.3047 8.53192 -0.0945728 69.7995 -2.6955 -1.40351 30.6462 -0.774301 18.9147 0.0107252 6.78697 -89.9894 13.2998 0.0264286 0.0179455 1.62884 0.0272014 0.0167514 -20.9063 0.0198122 0.0250613 -0.893649 0.0198144 0.0250533 80.3007 -50.1835 -115.374 28.2886 -9.56298 7.35013 -13.789 -19.1724 -42.9811 -4.26715 -0.54684 7.08713 -103.181 -43.1095 56.4131 -30.2604 7.57416 4.25255 4.16837 8.57024 -30.3205 10.4595 0.712426 2.75695 15.2156 3.17112 0.373037 -3.67778 3.02603 1.6226 
38.3702 96.5277 -246.655 -45.2899 -84.392 -43.9624 -174.564 9.47171 87.4582 -15.9995 13.5809 0.0282599 63.8176 16.1153 23.4164 35.5653 7.1725 -24.3713 178.581 9.96314 91.9486 -19.1153 8.82801 -0.0146451 71.2623 -3.24432 -1.66832 31.1056 -0.656164 18.5005 -0.010163 6.82359 -90.0109 13.2266 -0.0253605 -0.018604 1.55569 -0.0261524 -0.0174731 -20.9795 -0.0185906 -0.0253636 -0.96682 -0.0186024 -0.0253741 80.61 -50.4333 -114.821 28.135 -8.87725 7.11357 -12.0852 -17.662 -42.3627 -4.38976 -0.549819 6.94006 -102.967 -42.8651 56.6239 -30.8671 8.01572 4.49542 4.35211 8.9452 -31.0564 10.2354 0.76383 3.32503 15.1874 2.89737 -0.519357 -2.61949 3.03263 2.13946 
38.8959 95.9978 -246.156 -47.882 -84.2457 -46.5179 -174.586 10.4622 87.1055 -19.1363 12.5848 0.0851058 65.8215 16.7019 22.1354 36.9423 8.1643 -24.4293 179.419 13.4774 92.5101 -25.8696 11.2516 -1.14916 71.0495 -4.0056 -2.05961 36.3571 0.571536 18.9689 0.0537463 6.91139 -89.9518 13.0507 0.129891 0.0801231 1.37973 0.133295 0.074317 -21.1554 0.0998083 0.115458 -1.14275 0.099806 0.115446 80.7339 -50.4309 -114.639 28.1841 -8.24461 6.91069 -10.0744 -16.0509 -41.479 -5.26973 -0.554139 5.11401 -103.081 -42.7456 56.393 -30.7328 8.42813 4.77484 4.9208 9.82785 -32.1234 9.10962 0.622918 2.72806 15.1994 2.58463 -1.07801 -1.25385 2.90494 2.10695 
39.1914 95.6076 -245.218 -49.907 -83.8653 -49.8772 -174.641 9.93896 85.7279 -19.39 11.9908 -0.269462 66.1299 16.4766 21.3837 38.9562 9.75058 -22.0783 -179.94 19.786 91.909 -36.3416 10.26 -2.49691 69.3013 -3.96205 -2.08865 41.8581 1.55267 14.2277 0.00477492 7.04538 -89.7165 12.7824 0.145114 0.549314 1.11139 0.169143 0.542391 -21.4228 -0.0266903 0.567533 -1.41018 -0.0266845 0.567534 80.1766 -50.4958 -115.436 28.3829 -8.37865 7.24134 -10.4682 -16.3019 -42.357 -7.08306 -0.652553 4.34436 -102.829 -42.667 56.741 -29.8089 8.79324 4.62999 5.01372 9.1329 -34.017 9.30675 0.7413 3.74987 15.9385 2.88968 -0.85469 0.278982 3.17785 2.19103 
39.8345 95.705 -243.43 -36.8766 -83.9944 -35.2771 -174.15 9.26554 87.0115 -18.4759 13.2274 -0.296315 67.0278 17.7123 21.9867 39.4668 9.74714 -28.0544 179.788 24.2127 93.1358 -37.2803 10.0713 -1.28063 68.2502 -3.68824 -1.97215 43.0474 1.72007 13.3395 -0.117788 7.04735 -89.8854 12.7793 -0.178996 0.250482 1.10831 -0.167789 0.258112 -21.4268 -0.245994 0.185111 -1.41417 -0.245999 0.185104 79.9483 -50.7352 -115.676 28.727 -7.61019 8.92056 -10.9887 -15.5672 -43.59 -6.75552 -0.662535 5.0312 -103.582 -42.7326 55.6235 -28.6802 8.61091 4.06951 5.23657 8.86917 -34.7664 7.42329 0.525068 2.81649 15.732 2.96178 -0.599252 0.187755 3.22793 3.07104 
40.3068 95.7063 -241.032 -27.6135 -83.9844 -25.05 -173.97 7.50676 87.7925 -16.7266 14.568 -0.172364 66.8446 18.2271 23.36 43.2472 12.0328 -30.2891 -179.602 27.0194 93.4292 -31.7123 9.73338 -0.643949 66.7768 -3.08936 -1.68064 42.728 1.67394 13.53 -0.205018 7.07243 -90.0259 12.7291 -0.419525 -0.00251101 1.05825 -0.41923 0.0159524 -21.4774 -0.399378 -0.128472 -1.46479 -0.39938 -0.128486 80.1977 -50.7558 -115.303 28.9377 -7.32947 10.4167 -11.313 -15.8488 -42.7707 -7.1401 -0.696197 5.0271 -103.779 -42.5203 55.2213 -28.1126 8.49876 3.34372 5.56062 8.10086 -36.7683 8.0036 0.54346 2.61255 15.5908 3.14152 -0.304431 -0.42383 3.35053 3.88607 
